<svg width="14" height="14" viewBox="0 0 14 14" fill="none" xmlns="http://www.w3.org/2000/svg">
<g clip-path="url(#clip0_54_803)">
<mask id="mask0_54_803" style="mask-type:luminance" maskUnits="userSpaceOnUse" x="0" y="0" width="14" height="14">
<path d="M7.00009 12.8333C7.76627 12.8343 8.52509 12.6838 9.23294 12.3906C9.9408 12.0974 10.5837 11.6672 11.1248 11.1247C11.6673 10.5837 12.0975 9.94071 12.3907 9.23285C12.6839 8.52499 12.8344 7.76618 12.8334 6.99999C12.8344 6.23381 12.6839 5.47499 12.3907 4.76714C12.0975 4.05928 11.6673 3.41634 11.1248 2.87524C10.5837 2.33279 9.9408 1.9026 9.23294 1.60939C8.52509 1.31617 7.76627 1.16572 7.00009 1.16666C6.2339 1.16572 5.47509 1.31617 4.76723 1.60939C4.05937 1.9026 3.41643 2.33279 2.87534 2.87524C2.33288 3.41634 1.90269 4.05928 1.60948 4.76714C1.31626 5.47499 1.16581 6.23381 1.16675 6.99999C1.16581 7.76618 1.31626 8.52499 1.60948 9.23285C1.90269 9.94071 2.33288 10.5837 2.87534 11.1247C3.41643 11.6672 4.05937 12.0974 4.76723 12.3906C5.47509 12.6838 6.2339 12.8343 7.00009 12.8333Z" fill="white" stroke="white" stroke-width="2" stroke-linejoin="round"/>
<path d="M4.66675 7L6.41675 8.75L9.91675 5.25" stroke="black" stroke-width="2" stroke-linecap="round" stroke-linejoin="round"/>
</mask>
<g mask="url(#mask0_54_803)">
<path d="M0 0H14V14H0V0Z" fill="#51B15C"/>
</g>
</g>
<defs>
<clipPath id="clip0_54_803">
<rect width="14" height="14" fill="white"/>
</clipPath>
</defs>
</svg>
